# xmcd
#
# Track frame offsets:
#	150
#	7428
#	18599
#	38025
#	63029
#	84854
#	106263
#	131770
#	146179
#	156775
#	176477
#	193841
#	206836
#	224470
#
# Disc length: 3153 seconds
#
# Revision: 1
# Processed by: cddbd v1.4PL0 Copyright (c) Steve Scherf et al.
# Submitted via: audiograbber 1.82.01
#
DISCID=cb0c4f0e
DTITLE=JcLake - Abuse Blues
DYEAR=2002
DGENRE=Blues
TTITLE0=Intro
TTITLE1=Abuse Blues
TTITLE2=John
TTITLE3=Stress
TTITLE4=Mix Master Mike
TTITLE5=Snoet
TTITLE6=Dirty Talk in a Train
TTITLE7=No Time
TTITLE8=Intensive Care
TTITLE9=Last Dodo
TTITLE10=Cat Crash
TTITLE11=Monkey
TTITLE12=Bugs Bug Me
TTITLE13=No Problem
EXTD=
EXTT0=
EXTT1=
EXTT2=
EXTT3=
EXTT4=
EXTT5=
EXTT6=
EXTT7=
EXTT8=
EXTT9=
EXTT10=
EXTT11=
EXTT12=
EXTT13=
PLAYORDER=
